<?xml version="1.0" encoding="UTF-8" standalone="no" ?>
<!DOCTYPE svg PUBLIC "-//W3C//DTD SVG 1.1//EN" "http://www.w3.org/Graphics/SVG/1.1/DTD/svg11.dtd">
<svg xmlns="http://www.w3.org/2000/svg" xmlns:xlink="http://www.w3.org/1999/xlink" version="1.1" width="400" height="400" viewBox="0 0 400 400" xml:space="preserve">
<desc>Created with Fabric.js 3.6.2</desc>
<defs>
</defs>
<g transform="matrix(4.17 0 0 4.17 200 129.17)" id="surface1"  >
<path style="stroke: none; stroke-width: 1; stroke-dasharray: none; stroke-linecap: butt; stroke-dashoffset: 0; stroke-linejoin: miter; stroke-miterlimit: 4; fill: rgb(189,189,189); fill-rule: nonzero; opacity: 1;"  transform=" translate(-24, -7)" d="M 22 3 L 26 3 L 26 11 L 22 11 Z" stroke-linecap="round" />
</g>
<g transform="matrix(4.17 0 0 4.17 200 220.83)" id="surface1"  >
<path style="stroke: none; stroke-width: 1; stroke-dasharray: none; stroke-linecap: butt; stroke-dashoffset: 0; stroke-linejoin: miter; stroke-miterlimit: 4; fill: rgb(69,90,100); fill-rule: nonzero; opacity: 1;"  transform=" translate(-24, -29)" d="M 9 28 L 39 28 L 39 30 L 9 30 Z" stroke-linecap="round" />
</g>
<g transform="matrix(4.17 0 0 4.17 250.59 278.19)" id="surface1"  >
<path style="stroke: none; stroke-width: 1; stroke-dasharray: none; stroke-linecap: butt; stroke-dashoffset: 0; stroke-linejoin: miter; stroke-miterlimit: 4; fill: rgb(69,90,100); fill-rule: nonzero; opacity: 1;"  transform=" translate(-36.14, -42.77)" d="M 34.40625 41.355469 L 36.230469 40.53125 L 37.878906 44.175781 L 36.054688 45 Z" stroke-linecap="round" />
</g>
<g transform="matrix(4.17 0 0 4.17 149.44 278.19)" id="surface1"  >
<path style="stroke: none; stroke-width: 1; stroke-dasharray: none; stroke-linecap: butt; stroke-dashoffset: 0; stroke-linejoin: miter; stroke-miterlimit: 4; fill: rgb(69,90,100); fill-rule: nonzero; opacity: 1;"  transform=" translate(-11.87, -42.77)" d="M 11.953125 45 L 10.128906 44.175781 L 11.777344 40.53125 L 13.601563 41.355469 Z" stroke-linecap="round" />
</g>
<g transform="matrix(4.17 0 0 4.17 224.2 209.7)" id="surface1"  >
<path style="stroke: none; stroke-width: 1; stroke-dasharray: none; stroke-linecap: butt; stroke-dashoffset: 0; stroke-linejoin: miter; stroke-miterlimit: 4; fill: rgb(176,190,197); fill-rule: nonzero; opacity: 1;"  transform=" translate(-29.81, -26.33)" d="M 26.558594 11 C 25.640625 11.980469 24.398438 12.648438 23 12.839844 L 34.539063 41.65625 L 36.367188 40.824219 L 36.617188 36.519531 Z" stroke-linecap="round" />
</g>
<g transform="matrix(4.17 0 0 4.17 175.81 210.03)" id="surface1"  >
<path style="stroke: none; stroke-width: 1; stroke-dasharray: none; stroke-linecap: butt; stroke-dashoffset: 0; stroke-linejoin: miter; stroke-miterlimit: 4; fill: rgb(176,190,197); fill-rule: nonzero; opacity: 1;"  transform=" translate(-18.2, -26.41)" d="M 21.441406 11.160156 C 22.359375 12.140625 23.605469 12.808594 25 13 L 13.46875 41.65625 L 11.644531 40.824219 L 11.390625 36.519531 Z" stroke-linecap="round" />
</g>
<g transform="matrix(4.17 0 0 4.17 200 150)" id="surface1"  >
<path style="stroke: none; stroke-width: 1; stroke-dasharray: none; stroke-linecap: butt; stroke-dashoffset: 0; stroke-linejoin: miter; stroke-miterlimit: 4; fill: rgb(51,51,51); fill-rule: nonzero; opacity: 1;"  transform=" translate(-24, -12)" d="M 24 7 C 21.238281 7 19 9.238281 19 12 C 19 14.761719 21.238281 17 24 17 C 26.761719 17 29 14.761719 29 12 C 29 9.238281 26.761719 7 24 7 Z" stroke-linecap="round" />
</g>
<g transform="matrix(4.17 0 0 4.17 200 150)" id="surface1"  >
<path style="stroke: none; stroke-width: 1; stroke-dasharray: none; stroke-linecap: butt; stroke-dashoffset: 0; stroke-linejoin: miter; stroke-miterlimit: 4; fill: rgb(236,239,241); fill-rule: nonzero; opacity: 1;"  transform=" translate(-24, -12)" d="M 24 11 C 23.449219 11 23 11.449219 23 12 C 23 12.554688 23.449219 13 24 13 C 24.550781 13 25 12.554688 25 12 C 25 11.449219 24.550781 11 24 11 Z" stroke-linecap="round" />
</g>
<g transform="matrix(4.17 0 0 4.17 200 220.83)" id="surface1"  >
<path style="stroke: none; stroke-width: 1; stroke-dasharray: none; stroke-linecap: butt; stroke-dashoffset: 0; stroke-linejoin: miter; stroke-miterlimit: 4; fill: rgb(120,144,156); fill-rule: nonzero; opacity: 1;"  transform=" translate(-24, -29)" d="M 26 32 C 26 32.554688 25.554688 33 25 33 L 23 33 C 22.445313 33 22 32.554688 22 32 L 22 26 C 22 25.445313 22.445313 25 23 25 L 25 25 C 25.554688 25 26 25.445313 26 26 Z" stroke-linecap="round" />
</g>
</svg>